<?xml version="1.0" encoding="UTF-8"?>
<svg fill="none" version="1.1" viewBox="0 0 16 12" xmlns="http://www.w3.org/2000/svg">
 <path d="m8.1211 0.48438c-1.991 0-3.616 1.2571-4.3926 2.959-2.0756 0.184-3.7285 1.8857-3.7285 3.9941 0 2.247 1.8311 4.0781 4.0781 4.0781h0.091797 8.5742c1.7846 0 3.2559-1.4591 3.2559-3.2559 0-1.7042-1.3429-3.0846-3.0273-3.209-0.19354-2.5369-2.2666-4.5664-4.8516-4.5664zm0 1.1602c2.0848 0 3.7656 1.6788 3.7656 3.7637 0-0.019338-0.011719 0.038632-0.011719 0.17383a0.57935 0.57935 0 0 0 0.58008 0.58008h0.28906c1.1692 0 2.0977 0.93947 2.0977 2.0977 0 1.1692-0.93947 2.0957-2.0977 2.0957h-8.5742-0.091797c-1.6226 0-2.9199-1.2953-2.9199-2.918 0-1.5869 1.279-2.8771 2.8809-2.8965a0.57935 0.57935 0 0 0 0.53711-0.38477c0.52252-1.457 1.9052-2.5117 3.5449-2.5117zm-0.26367 1.5664a0.57935 0.57935 0 0 0-0.57031 0.58789v3.2637l-1.0605-1.0664a0.57935 0.57935 0 0 0-0.41406-0.17578 0.57935 0.57935 0 0 0-0.40625 0.99414l1.9805 1.9941a0.57935 0.57935 0 0 0 0.95898 0l1.9824-1.9941a0.58005 0.58005 0 1 0-0.82227-0.81836l-1.0605 1.0664v-3.2637a0.57935 0.57935 0 0 0-0.58789-0.58789z" fill="#000000"/>
</svg>
