<?xml version="1.0" encoding="UTF-8"?>
<svg fill="none" version="1.1" viewBox="0 0 23 9" xmlns="http://www.w3.org/2000/svg">
 <path d="m21.05 3.0518c-0.3342-0.83975-0.9895-1.3532-1.8357-1.6528-0.7589-0.26891-1.5508-0.31058-2.3501-0.2351-1.2422 0.11794-2.09 0.88299-2.2925 2.0569-0.1326 0.76741-0.0675 1.5411-0.0758 2.3117-0.0107 0.95533-0.0115 1.9107 0.0033 2.8652 0.0041 0.27127-0.0798 0.35855-0.3696 0.36091-1.0289 0.00707-1.0199 0.0173-1.0306-0.98128-0.0156-1.4255 0.0453-2.8518-0.0535-4.2766-0.1276-1.8399-1.5344-2.6317-3.4614-2.3872 0.76308 0.4584 1.2249 1.0387 1.2537 1.8863 0.0296 0.8767-0.4478 1.4184-1.2734 1.7943 0.14076 0.06998 0.22061 0.1093 0.30128 0.1494 1.4562 0.72888 1.555 2.6018 0.18436 3.4848-2.1558 1.3886-5.2361 0.10929-5.6378-2.3502-0.30704-1.8808 0.19262-3.4982 1.7608-4.7507 0.05762-0.04561 0.15064-0.07549 0.135-0.17613-2.0604-0.3153-3.7438 0.30822-4.4862 1.7361-0.8388 1.6142-0.30786 3.7097 1.2372 4.7782 0.31033 0.21466 0.30128 0.3326 0.07655 0.59286-0.58691 0.68013-0.57374 0.69036-1.2833 0.10929-1.9945-1.6347-2.4571-4.5824-1.001-6.5316 0.8067-1.0796 1.9781-1.5734 3.3182-1.751 1.1549-0.15332 2.2974-0.099858 3.4137 0.23746 0.20249 0.06133 0.37042 0.028306 0.55481-0.029092 1.038-0.32002 2.0991-0.36798 3.1676-0.19421 0.9071 0.14703 1.68 0.54961 2.2818 1.2235 0.1432 0.16119 0.251 0.21072 0.4148 0.0228 1.6966-1.9476 5.5333-1.5403 7.0916-0.27992 1.0701 0.8657 1.5821 1.9869 1.7089 3.2812 0.0848 0.86176 0.0576 1.7259-0.256 2.5578-0.5515 1.4617-1.9336 2.2181-3.6318 1.9846-1.4883-0.20443-2.4917-1.2926-2.5955-2.811-0.0378-0.55197-0.0115-1.0969 0.1688-1.6284 0.5672-1.6732 2.5395-2.4359 4.171-1.6103 0.1325 0.0684 0.2609 0.14153 0.391 0.21229zm-15.368 2.0679c0.00988 0.18242 0.01152 0.36562 0.02963 0.54804 0.16546 1.6771 1.4998 2.5916 3.0828 2.1159 0.5614-0.16905 0.84951-0.53468 0.86844-1.1039 0.01811-0.53153-0.25518-0.92388-0.79106-1.115-0.32268-0.1148-0.66265-0.18792-1.0051-0.16119-0.35643 0.02752-0.43216-0.10851-0.42063-0.42302 0.02305-0.62981 0.00494-0.6306 0.64207-0.68799 0.8034-0.07313 1.2405-0.37821 1.3747-0.96084 0.16463-0.71866-0.27164-1.4208-1.089-1.777-0.25435-0.11086-0.47414-0.12502-0.72603 0.02516-1.3739 0.82009-1.8949 2.0632-1.9657 3.5398zm15.835-0.10064c0.1391-0.58106-0.3482-0.89715-0.861-1.1684-1.3541-0.71708-2.7831-0.01022-2.97 1.4491-0.0453 0.35462-0.0255 0.70294 0.0288 1.052 0.1301 0.84211 0.6651 1.3894 1.4463 1.4806 0.9302 0.1085 1.6727-0.27992 2.0283-1.0631 0.2379-0.52445 0.2939-1.0819 0.3276-1.7503z" fill="#000" />
</svg>
