<?xml version="1.0" encoding="UTF-8"?>
<svg fill="none" version="1.1" viewBox="0 0 160 30" xmlns="http://www.w3.org/2000/svg">
 <g fill="#f00" fill-opacity=".8">
  <path d="m0 29 7.5719-3.5649v-12.332h-7.5719z"/>
  <path d="m22.176 25.435 7.5676 3.5649v-15.896h-7.5676z"/>
  <path d="m0 0v10.096h7.5719v-2.6832h3.5962v17.854h7.4074v-17.854h3.6004v2.6832h7.5677v-10.096z"/>
  <path d="m48.704 5.2593v8.6679h-2.3971v-8.6679h-3.307v-2.201h9.0111v2.2065h-3.307z"/>
  <path d="m60.445 13.933-2.3317-3.4813h-1.8796v3.4813h-2.3917v-10.874h4.9741c2.566 0 4.1023 1.3511 4.1023 3.5903v0.03269c0 1.7543-0.9479 2.8602-2.3317 3.3723l2.6586 3.8845h-2.8003zm0.0491-7.1642c0-1.0242-0.7137-1.5527-1.8796-1.5527h-2.3754v3.1217h2.4244c1.1659 0 1.836-0.62107 1.836-1.5364v-0.03268z"/>
  <path d="m69.608 14.102c-2.9202 0-4.7071-1.6289-4.7071-4.8324v-6.2108h2.3917v6.1508c0 1.7706 0.888 2.6859 2.3481 2.6859s2.3481-0.8826 2.3481-2.6096v-6.2271h2.3917v6.1345c0 3.2961-1.8469 4.9087-4.7725 4.9087z"/>
  <path d="m81.741 5.2593v8.6679h-2.3916v-8.6679h-3.307v-2.201h9.0111v2.2065h-3.3125z"/>
  <path d="m93.689 13.933v-4.3638h-4.4129v4.3638h-2.3917v-10.874h2.3917v4.304h4.4129v-4.304h2.3917v10.874z"/>
  <path d="m111.85 13.933v-7.1042l-3.062 4.6472h-0.06l-3.029-4.5982v7.0552h-2.348v-10.874h2.577l2.86 4.5982 2.861-4.5982h2.576v10.874z"/>
  <path d="m116.83 13.933v-10.874h8.205v2.1302h-5.824v2.2065h5.127v2.1302h-5.127v2.2827h5.906v2.1302h-8.287z"/>
  <path d="m135.74 13.933v-7.1042l-3.062 4.6472h-0.06l-3.029-4.5982v7.0552h-2.348v-10.874h2.577l2.86 4.5982 2.86-4.5982h2.577v10.874z"/>
  <path d="m140.72 13.933v-10.874h8.205v2.1302h-5.824v2.2065h5.126v2.1302h-5.126v2.2827h5.905v2.1302h-8.286z"/>
  <path d="m155 14.085c-1.645 0-3.312-0.5721-4.614-1.7379l1.416-1.6944c0.981 0.8063 2.005 1.3184 3.247 1.3184 0.981 0 1.569-0.3868 1.569-1.0242v-0.0327c0-0.6047-0.37-0.91525-2.19-1.3838-2.19-0.56115-3.607-1.1659-3.607-3.3233v-0.02724c0-1.9722 1.586-3.2797 3.809-3.2797 1.585 0 2.936 0.49577 4.042 1.3838l-1.242 1.8033c-0.964-0.67011-1.912-1.0733-2.828-1.0733-0.915 0-1.4 0.4195-1.4 0.94796v0.03269c0 0.71369 0.469 0.94796 2.348 1.4274 2.207 0.57204 3.449 1.3675 3.449 3.2634v0.0327c-5e-3 2.1574-1.651 3.3669-3.999 3.3669z"/>
  <path d="m44 26.748 0.9115-1.0869c0.8239 0.7187 1.6478 1.1219 2.7258 1.1219 0.9378 0 1.5338-0.4294 1.5338-1.0868v-0.0263c0-0.6135-0.3418-0.9466-1.9457-1.3147-1.8406-0.447-2.8836-0.9904-2.8836-2.5768v-0.0263c0-1.4812 1.2358-2.5067 2.9449-2.5067 1.2534 0 2.2526 0.3857 3.129 1.0868l-0.8063 1.1482c-0.7713-0.5785-1.5514-0.8852-2.3402-0.8852-0.8852 0-1.4023 0.4557-1.4023 1.0254v0.0263c0 0.6661 0.3944 0.9641 2.0421 1.3586 1.8231 0.447 2.7784 1.0955 2.7784 2.5242v0.0263c0 1.6127-1.2708 2.5768-3.0851 2.5768-1.3235-0.0088-2.5681-0.4645-3.6023-1.3848z"/>
  <path d="m56.288 28.001v-0.7976c-0.447 0.5259-1.1219 0.9378-2.1123 0.9378-1.2358 0-2.3227-0.7011-2.3227-2.0071v-0.035c0-1.4462 1.1219-2.1298 2.6382-2.1298 0.7888 0 1.2972 0.1139 1.7968 0.2717v-0.1227c0-0.9028-0.5697-1.3936-1.604-1.3936-0.7274 0-1.2708 0.1578-1.8581 0.4032l-0.4031-1.192c0.7187-0.3243 1.4198-0.5434 2.4803-0.5434 1.9195 0 2.8573 1.0079 2.8573 2.7521v3.8564zm0.035-2.7258c-0.3856-0.149-0.9115-0.2542-1.49-0.2542-0.9378 0-1.49 0.3857-1.49 1.008v0.0263c0 0.6135 0.5522 0.9641 1.2534 0.9641 0.9904 0 1.7266-0.5522 1.7266-1.3673z"/>
  <path d="m59.54 21.489h1.49v1.0167c0.4207-0.6136 1.0255-1.1482 2.0334-1.1482 1.4637 0 2.3139 0.9904 2.3139 2.5067v4.1457h-1.49v-3.7075c0-1.0079-0.5083-1.5864-1.3936-1.5864-0.8589 0-1.4637 0.6048-1.4637 1.6127v3.6724h-1.49z"/>
  <path d="m67.218 19.07h1.604v1.4199h-1.604zm0.0614 2.419h1.49v6.5122h-1.49z"/>
  <path d="m71.021 26.204v-3.4269h-0.8238v-1.2884h0.8238v-1.788h1.49v1.788h1.753v1.2796h-1.753v3.1903c0 0.5785 0.298 0.8151 0.8064 0.8151 0.333 0 0.631-0.0701 0.9203-0.2191v1.2183c-0.3681 0.2104-0.7888 0.3331-1.341 0.3331-1.0956 0.0087-1.8757-0.4733-1.8757-1.902z"/>
  <path d="m75.562 29.614 0.5084-1.1131c0.2717 0.149 0.5697 0.2454 0.8764 0.2454 0.4207 0 0.6749-0.1841 0.9291-0.7538l-2.7083-6.5121h1.5864l1.8494 4.8381 1.6915-4.8381h1.5514l-2.5944 6.6962c-0.5171 1.3322-1.0955 1.823-2.1473 1.823-0.6223 0.0088-1.0781-0.1402-1.5426-0.3856z"/>
  <path d="m86.754 25.635v-4.1456h1.49v3.6986c0 1.008 0.5083 1.5952 1.3935 1.5952 0.8677 0 1.4637-0.6047 1.4637-1.6127v-3.6811h1.49v6.5121h-1.49v-1.0079c-0.4207 0.6135-1.0254 1.1481-2.0334 1.1481-1.4637-0.0087-2.3138-0.9904-2.3138-2.5067z"/>
  <path d="m94.476 21.489h1.49v1.0167c0.4207-0.6136 1.0255-1.1482 2.0334-1.1482 1.4637 0 2.314 0.9904 2.314 2.5067v4.1457h-1.4901v-3.7075c0-1.0079-0.5083-1.5864-1.3936-1.5864-0.8589 0-1.4637 0.6048-1.4637 1.6127v3.6724h-1.49z"/>
  <path d="m102.21 19h1.49v9.0013h-1.49z"/>
  <path d="m105.68 19.07h1.604v1.4199h-1.604zm0.061 2.419h1.49v6.5122h-1.49z"/>
  <path d="m109.17 21.489h1.49v0.9904c0.421-0.5785 0.99-1.1219 1.981-1.1219 0.938 0 1.595 0.4558 1.937 1.1482 0.534-0.6924 1.218-1.1482 2.208-1.1482 1.42 0 2.279 0.9028 2.279 2.4892v4.1544h-1.49v-3.6987c0-1.0342-0.482-1.5864-1.323-1.5864-0.815 0-1.394 0.5697-1.394 1.6127v3.6724h-1.49v-3.7074c0-1.008-0.491-1.5777-1.315-1.5777-0.823 0-1.393 0.6135-1.393 1.6302v3.6637h-1.49z"/>
  <path d="m120.92 19.07h1.604v1.4199h-1.604zm0.061 2.419h1.49v6.5122h-1.49z"/>
  <path d="m124.73 26.204v-3.4269h-0.824v-1.2884h0.824v-1.788h1.49v1.788h1.753v1.2796h-1.753v3.1903c0 0.5785 0.298 0.8151 0.807 0.8151 0.333 0 0.631-0.0701 0.92-0.2191v1.2183c-0.368 0.2104-0.789 0.3331-1.341 0.3331-1.096 0.0087-1.876-0.4733-1.876-1.902z"/>
  <path d="m128.94 24.767v-0.0175c0-1.8581 1.324-3.3919 3.182-3.3919 2.068 0 3.12 1.6302 3.12 3.5059 0 0.1402-9e-3 0.2717-0.026 0.4207h-4.786c0.158 1.0605 0.912 1.6565 1.876 1.6565 0.727 0 1.244-0.2717 1.762-0.7801l0.876 0.7801c-0.614 0.7362-1.464 1.2183-2.664 1.2183-1.885-0.0088-3.34-1.3761-3.34-3.392zm4.821-0.4732c-0.097-0.9642-0.666-1.7179-1.657-1.7179-0.911 0-1.551 0.7012-1.691 1.7179z"/>
  <path d="m136.41 24.758v-0.0263c0-2.1561 1.464-3.3744 3.024-3.3744 1.07 0 1.753 0.5434 2.218 1.1482v-3.5059h1.49v9.0013h-1.49v-1.0868c-0.482 0.6749-1.157 1.2183-2.218 1.2183-1.534 0-3.024-1.2183-3.024-3.3744zm5.268 0v-0.0263c0-1.2534-0.885-2.086-1.884-2.086-1.026 0-1.876 0.7888-1.876 2.086v0.0263c0 1.2621 0.868 2.086 1.876 2.086 0.99 0 1.884-0.8414 1.884-2.086z"/>
  <path d="m144.92 26.31h1.639v1.6916h-1.639z"/>
 </g>
</svg>
