<?xml version="1.0" encoding="UTF-8"?>
<svg version="1.1" viewBox="0 0 16 16" xmlns="http://www.w3.org/2000/svg">
 <path d="m12.362 0c-1.4623 0-2.6552 1.2046-2.6552 2.6667 0 0.23297 0.040399 0.45346 0.097283 0.66954l-4.5666 2.5522c-0.44983-0.34343-1.0029-0.5551-1.6081-0.5551-1.4623 0-2.6582 1.193-2.6582 2.6552 0 1.4622 1.1959 2.6667 2.6582 2.6667 0.62012 0 1.1842-0.22544 1.6394-0.58657l4.5008 2.7039c-0.03956 0.18202-0.062949 0.36762-0.062949 0.56081 0 1.4622 1.1931 2.6667 2.6552 2.6667 1.4622 0 2.6667-1.2045 2.6667-2.6667 0-1.4622-1.2045-2.6667-2.6667-2.6667-0.75514 0-1.4353 0.32617-1.9198 0.83836l-4.3204-2.6009c0.10658-0.28674 0.17453-0.59386 0.17453-0.91561 0-0.33197-0.069997-0.64499-0.18312-0.93849l4.4092-2.4721c0.47832 0.46401 1.126 0.75537 1.8398 0.75537 1.4622 0 2.6667-1.2045 2.6667-2.6667 0-1.4622-1.2045-2.6667-2.6667-2.6667zm0 1.4449c0.68426 0 1.2332 0.53735 1.2332 1.2218 0 0.68432-0.54896 1.2218-1.2332 1.2218-0.44248 0-0.80447-0.23981-1.0186-0.58371-0.02277-0.04165-0.04961-0.080946-0.08011-0.11731-0.07448-0.15898-0.12303-0.33077-0.12303-0.52076 0-0.68421 0.5373-1.2218 1.2218-1.2218zm-8.7326 5.322c0.68427 0 1.2218 0.5373 1.2218 1.2218 0 0.68427-0.5373 1.2218-1.2218 1.2218-0.68432 0-1.2246-0.5373-1.2246-1.2218 0-0.68427 0.54016-1.2218 1.2246-1.2218zm8.7326 5.3449c0.68426 0 1.2332 0.5373 1.2332 1.2218 0 0.68432-0.5489 1.2218-1.2332 1.2218-0.68432 0-1.2218-0.53729-1.2218-1.2218 0-0.13204 0.03431-0.25079 0.07153-0.3691 0.0225-0.11648 0.09317-0.20808 0.17168-0.3319 0.21986-0.30858 0.56323-0.52076 0.97856-0.52076z" color="#000000" stroke-width="1.465"/>
</svg>
