<?xml version="1.0" encoding="utf-8"?><svg xmlns="http://www.w3.org/2000/svg" xmlns:xlink="http://www.w3.org/1999/xlink">
<symbol viewBox="0 0 160 30" id="logo" xmlns="http://www.w3.org/2000/svg">
<g>
  <path d="m0 29 7.5719-3.5649v-12.332h-7.5719z"/>
  <path d="m22.176 25.435 7.5676 3.5649v-15.896h-7.5676z"/>
  <path d="m0 0v10.096h7.5719v-2.6832h3.5962v17.854h7.4074v-17.854h3.6004v2.6832h7.5677v-10.096z"/>
  <path d="m48.704 5.2593v8.6679h-2.3971v-8.6679h-3.307v-2.201h9.0111v2.2065h-3.307z"/>
  <path d="m60.445 13.933-2.3317-3.4813h-1.8796v3.4813h-2.3917v-10.874h4.9741c2.566 0 4.1023 1.3511 4.1023 3.5903v0.03269c0 1.7543-0.9479 2.8602-2.3317 3.3723l2.6586 3.8845h-2.8003zm0.0491-7.1642c0-1.0242-0.7137-1.5527-1.8796-1.5527h-2.3754v3.1217h2.4244c1.1659 0 1.836-0.62107 1.836-1.5364v-0.03268z"/>
  <path d="m69.608 14.102c-2.9202 0-4.7071-1.6289-4.7071-4.8324v-6.2108h2.3917v6.1508c0 1.7706 0.888 2.6859 2.3481 2.6859s2.3481-0.8826 2.3481-2.6096v-6.2271h2.3917v6.1345c0 3.2961-1.8469 4.9087-4.7725 4.9087z"/>
  <path d="m81.741 5.2593v8.6679h-2.3916v-8.6679h-3.307v-2.201h9.0111v2.2065h-3.3125z"/>
  <path d="m93.689 13.933v-4.3638h-4.4129v4.3638h-2.3917v-10.874h2.3917v4.304h4.4129v-4.304h2.3917v10.874z"/>
  <path d="m111.85 13.933v-7.1042l-3.062 4.6472h-0.06l-3.029-4.5982v7.0552h-2.348v-10.874h2.577l2.86 4.5982 2.861-4.5982h2.576v10.874z"/>
  <path d="m116.83 13.933v-10.874h8.205v2.1302h-5.824v2.2065h5.127v2.1302h-5.127v2.2827h5.906v2.1302h-8.287z"/>
  <path d="m135.74 13.933v-7.1042l-3.062 4.6472h-0.06l-3.029-4.5982v7.0552h-2.348v-10.874h2.577l2.86 4.5982 2.86-4.5982h2.577v10.874z"/>
  <path d="m140.72 13.933v-10.874h8.205v2.1302h-5.824v2.2065h5.126v2.1302h-5.126v2.2827h5.905v2.1302h-8.286z"/>
  <path d="m155 14.085c-1.645 0-3.312-0.5721-4.614-1.7379l1.416-1.6944c0.981 0.8063 2.005 1.3184 3.247 1.3184 0.981 0 1.569-0.3868 1.569-1.0242v-0.0327c0-0.6047-0.37-0.91525-2.19-1.3838-2.19-0.56115-3.607-1.1659-3.607-3.3233v-0.02724c0-1.9722 1.586-3.2797 3.809-3.2797 1.585 0 2.936 0.49577 4.042 1.3838l-1.242 1.8033c-0.964-0.67011-1.912-1.0733-2.828-1.0733-0.915 0-1.4 0.4195-1.4 0.94796v0.03269c0 0.71369 0.469 0.94796 2.348 1.4274 2.207 0.57204 3.449 1.3675 3.449 3.2634v0.0327c-5e-3 2.1574-1.651 3.3669-3.999 3.3669z"/>
  <path d="m44 26.748 0.9115-1.0869c0.8239 0.7187 1.6478 1.1219 2.7258 1.1219 0.9378 0 1.5338-0.4294 1.5338-1.0868v-0.0263c0-0.6135-0.3418-0.9466-1.9457-1.3147-1.8406-0.447-2.8836-0.9904-2.8836-2.5768v-0.0263c0-1.4812 1.2358-2.5067 2.9449-2.5067 1.2534 0 2.2526 0.3857 3.129 1.0868l-0.8063 1.1482c-0.7713-0.5785-1.5514-0.8852-2.3402-0.8852-0.8852 0-1.4023 0.4557-1.4023 1.0254v0.0263c0 0.6661 0.3944 0.9641 2.0421 1.3586 1.8231 0.447 2.7784 1.0955 2.7784 2.5242v0.0263c0 1.6127-1.2708 2.5768-3.0851 2.5768-1.3235-0.0088-2.5681-0.4645-3.6023-1.3848z"/>
  <path d="m56.288 28.001v-0.7976c-0.447 0.5259-1.1219 0.9378-2.1123 0.9378-1.2358 0-2.3227-0.7011-2.3227-2.0071v-0.035c0-1.4462 1.1219-2.1298 2.6382-2.1298 0.7888 0 1.2972 0.1139 1.7968 0.2717v-0.1227c0-0.9028-0.5697-1.3936-1.604-1.3936-0.7274 0-1.2708 0.1578-1.8581 0.4032l-0.4031-1.192c0.7187-0.3243 1.4198-0.5434 2.4803-0.5434 1.9195 0 2.8573 1.0079 2.8573 2.7521v3.8564zm0.035-2.7258c-0.3856-0.149-0.9115-0.2542-1.49-0.2542-0.9378 0-1.49 0.3857-1.49 1.008v0.0263c0 0.6135 0.5522 0.9641 1.2534 0.9641 0.9904 0 1.7266-0.5522 1.7266-1.3673z"/>
  <path d="m59.54 21.489h1.49v1.0167c0.4207-0.6136 1.0255-1.1482 2.0334-1.1482 1.4637 0 2.3139 0.9904 2.3139 2.5067v4.1457h-1.49v-3.7075c0-1.0079-0.5083-1.5864-1.3936-1.5864-0.8589 0-1.4637 0.6048-1.4637 1.6127v3.6724h-1.49z"/>
  <path d="m67.218 19.07h1.604v1.4199h-1.604zm0.0614 2.419h1.49v6.5122h-1.49z"/>
  <path d="m71.021 26.204v-3.4269h-0.8238v-1.2884h0.8238v-1.788h1.49v1.788h1.753v1.2796h-1.753v3.1903c0 0.5785 0.298 0.8151 0.8064 0.8151 0.333 0 0.631-0.0701 0.9203-0.2191v1.2183c-0.3681 0.2104-0.7888 0.3331-1.341 0.3331-1.0956 0.0087-1.8757-0.4733-1.8757-1.902z"/>
  <path d="m75.562 29.614 0.5084-1.1131c0.2717 0.149 0.5697 0.2454 0.8764 0.2454 0.4207 0 0.6749-0.1841 0.9291-0.7538l-2.7083-6.5121h1.5864l1.8494 4.8381 1.6915-4.8381h1.5514l-2.5944 6.6962c-0.5171 1.3322-1.0955 1.823-2.1473 1.823-0.6223 0.0088-1.0781-0.1402-1.5426-0.3856z"/>
  <path d="m86.754 25.635v-4.1456h1.49v3.6986c0 1.008 0.5083 1.5952 1.3935 1.5952 0.8677 0 1.4637-0.6047 1.4637-1.6127v-3.6811h1.49v6.5121h-1.49v-1.0079c-0.4207 0.6135-1.0254 1.1481-2.0334 1.1481-1.4637-0.0087-2.3138-0.9904-2.3138-2.5067z"/>
  <path d="m94.476 21.489h1.49v1.0167c0.4207-0.6136 1.0255-1.1482 2.0334-1.1482 1.4637 0 2.314 0.9904 2.314 2.5067v4.1457h-1.4901v-3.7075c0-1.0079-0.5083-1.5864-1.3936-1.5864-0.8589 0-1.4637 0.6048-1.4637 1.6127v3.6724h-1.49z"/>
  <path d="m102.21 19h1.49v9.0013h-1.49z"/>
  <path d="m105.68 19.07h1.604v1.4199h-1.604zm0.061 2.419h1.49v6.5122h-1.49z"/>
  <path d="m109.17 21.489h1.49v0.9904c0.421-0.5785 0.99-1.1219 1.981-1.1219 0.938 0 1.595 0.4558 1.937 1.1482 0.534-0.6924 1.218-1.1482 2.208-1.1482 1.42 0 2.279 0.9028 2.279 2.4892v4.1544h-1.49v-3.6987c0-1.0342-0.482-1.5864-1.323-1.5864-0.815 0-1.394 0.5697-1.394 1.6127v3.6724h-1.49v-3.7074c0-1.008-0.491-1.5777-1.315-1.5777-0.823 0-1.393 0.6135-1.393 1.6302v3.6637h-1.49z"/>
  <path d="m120.92 19.07h1.604v1.4199h-1.604zm0.061 2.419h1.49v6.5122h-1.49z"/>
  <path d="m124.73 26.204v-3.4269h-0.824v-1.2884h0.824v-1.788h1.49v1.788h1.753v1.2796h-1.753v3.1903c0 0.5785 0.298 0.8151 0.807 0.8151 0.333 0 0.631-0.0701 0.92-0.2191v1.2183c-0.368 0.2104-0.789 0.3331-1.341 0.3331-1.096 0.0087-1.876-0.4733-1.876-1.902z"/>
  <path d="m128.94 24.767v-0.0175c0-1.8581 1.324-3.3919 3.182-3.3919 2.068 0 3.12 1.6302 3.12 3.5059 0 0.1402-9e-3 0.2717-0.026 0.4207h-4.786c0.158 1.0605 0.912 1.6565 1.876 1.6565 0.727 0 1.244-0.2717 1.762-0.7801l0.876 0.7801c-0.614 0.7362-1.464 1.2183-2.664 1.2183-1.885-0.0088-3.34-1.3761-3.34-3.392zm4.821-0.4732c-0.097-0.9642-0.666-1.7179-1.657-1.7179-0.911 0-1.551 0.7012-1.691 1.7179z"/>
  <path d="m136.41 24.758v-0.0263c0-2.1561 1.464-3.3744 3.024-3.3744 1.07 0 1.753 0.5434 2.218 1.1482v-3.5059h1.49v9.0013h-1.49v-1.0868c-0.482 0.6749-1.157 1.2183-2.218 1.2183-1.534 0-3.024-1.2183-3.024-3.3744zm5.268 0v-0.0263c0-1.2534-0.885-2.086-1.884-2.086-1.026 0-1.876 0.7888-1.876 2.086v0.0263c0 1.2621 0.868 2.086 1.876 2.086 0.99 0 1.884-0.8414 1.884-2.086z"/>
  <path d="m144.92 26.31h1.639v1.6916h-1.639z"/>
 </g>
</symbol>
<symbol viewBox="0 0 16 16" id="share" xmlns="http://www.w3.org/2000/svg"><path d="m12.362 0c-1.4623 0-2.6552 1.2046-2.6552 2.6667 0 0.23297 0.040399 0.45346 0.097283 0.66954l-4.5666 2.5522c-0.44983-0.34343-1.0029-0.5551-1.6081-0.5551-1.4623 0-2.6582 1.193-2.6582 2.6552 0 1.4622 1.1959 2.6667 2.6582 2.6667 0.62012 0 1.1842-0.22544 1.6394-0.58657l4.5008 2.7039c-0.03956 0.18202-0.062949 0.36762-0.062949 0.56081 0 1.4622 1.1931 2.6667 2.6552 2.6667 1.4622 0 2.6667-1.2045 2.6667-2.6667 0-1.4622-1.2045-2.6667-2.6667-2.6667-0.75514 0-1.4353 0.32617-1.9198 0.83836l-4.3204-2.6009c0.10658-0.28674 0.17453-0.59386 0.17453-0.91561 0-0.33197-0.069997-0.64499-0.18312-0.93849l4.4092-2.4721c0.47832 0.46401 1.126 0.75537 1.8398 0.75537 1.4622 0 2.6667-1.2045 2.6667-2.6667 0-1.4622-1.2045-2.6667-2.6667-2.6667zm0 1.4449c0.68426 0 1.2332 0.53735 1.2332 1.2218 0 0.68432-0.54896 1.2218-1.2332 1.2218-0.44248 0-0.80447-0.23981-1.0186-0.58371-0.02277-0.04165-0.04961-0.080946-0.08011-0.11731-0.07448-0.15898-0.12303-0.33077-0.12303-0.52076 0-0.68421 0.5373-1.2218 1.2218-1.2218zm-8.7326 5.322c0.68427 0 1.2218 0.5373 1.2218 1.2218 0 0.68427-0.5373 1.2218-1.2218 1.2218-0.68432 0-1.2246-0.5373-1.2246-1.2218 0-0.68427 0.54016-1.2218 1.2246-1.2218zm8.7326 5.3449c0.68426 0 1.2332 0.5373 1.2332 1.2218 0 0.68432-0.5489 1.2218-1.2332 1.2218-0.68432 0-1.2218-0.53729-1.2218-1.2218 0-0.13204 0.03431-0.25079 0.07153-0.3691 0.0225-0.11648 0.09317-0.20808 0.17168-0.3319 0.21986-0.30858 0.56323-0.52076 0.97856-0.52076z" /></symbol>
<symbol viewBox="0 0 16 16" id="arrow-down" xmlns="http://www.w3.org/2000/svg"><path d="m1.7031 0.1582-1.7031 1.6855 8.0117 7.998 7.9883-8.0078-1.6973-1.6719-6.2988 6.3027z" /></symbol>
<symbol viewBox="0 0 16 16" id="download" xmlns="http://www.w3.org/2000/svg"><path d="m8.1211 0.48438c-1.991 0-3.616 1.2571-4.3926 2.959-2.0756 0.184-3.7285 1.8857-3.7285 3.9941 0 2.247 1.8311 4.0781 4.0781 4.0781h0.091797 8.5742c1.7846 0 3.2559-1.4591 3.2559-3.2559 0-1.7042-1.3429-3.0846-3.0273-3.209-0.19354-2.5369-2.2666-4.5664-4.8516-4.5664zm0 1.1602c2.0848 0 3.7656 1.6788 3.7656 3.7637 0-0.019338-0.011719 0.038632-0.011719 0.17383a0.57935 0.57935 0 0 0 0.58008 0.58008h0.28906c1.1692 0 2.0977 0.93947 2.0977 2.0977 0 1.1692-0.93947 2.0957-2.0977 2.0957h-8.5742-0.091797c-1.6226 0-2.9199-1.2953-2.9199-2.918 0-1.5869 1.279-2.8771 2.8809-2.8965a0.57935 0.57935 0 0 0 0.53711-0.38477c0.52252-1.457 1.9052-2.5117 3.5449-2.5117zm-0.26367 1.5664a0.57935 0.57935 0 0 0-0.57031 0.58789v3.2637l-1.0605-1.0664a0.57935 0.57935 0 0 0-0.41406-0.17578 0.57935 0.57935 0 0 0-0.40625 0.99414l1.9805 1.9941a0.57935 0.57935 0 0 0 0.95898 0l1.9824-1.9941a0.58005 0.58005 0 1 0-0.82227-0.81836l-1.0605 1.0664v-3.2637a0.57935 0.57935 0 0 0-0.58789-0.58789z" /></symbol>
<symbol viewBox="0 0 11 12" id="eng" xmlns="http://www.w3.org/2000/svg"><path d="m7.6953 9.0391h-4.4062l-0.92188 2.6484h-2.0547l4.2969-11.375h1.7734l4.3047 11.375h-2.0625zm-3.8516-1.5938h3.2969l-1.6484-4.7188z" fill="#000000" /></symbol>
<symbol viewBox="0 0 23 9" id="mal" xmlns="http://www.w3.org/2000/svg"><path d="m21.05 3.0518c-0.3342-0.83975-0.9895-1.3532-1.8357-1.6528-0.7589-0.26891-1.5508-0.31058-2.3501-0.2351-1.2422 0.11794-2.09 0.88299-2.2925 2.0569-0.1326 0.76741-0.0675 1.5411-0.0758 2.3117-0.0107 0.95533-0.0115 1.9107 0.0033 2.8652 0.0041 0.27127-0.0798 0.35855-0.3696 0.36091-1.0289 0.00707-1.0199 0.0173-1.0306-0.98128-0.0156-1.4255 0.0453-2.8518-0.0535-4.2766-0.1276-1.8399-1.5344-2.6317-3.4614-2.3872 0.76308 0.4584 1.2249 1.0387 1.2537 1.8863 0.0296 0.8767-0.4478 1.4184-1.2734 1.7943 0.14076 0.06998 0.22061 0.1093 0.30128 0.1494 1.4562 0.72888 1.555 2.6018 0.18436 3.4848-2.1558 1.3886-5.2361 0.10929-5.6378-2.3502-0.30704-1.8808 0.19262-3.4982 1.7608-4.7507 0.05762-0.04561 0.15064-0.07549 0.135-0.17613-2.0604-0.3153-3.7438 0.30822-4.4862 1.7361-0.8388 1.6142-0.30786 3.7097 1.2372 4.7782 0.31033 0.21466 0.30128 0.3326 0.07655 0.59286-0.58691 0.68013-0.57374 0.69036-1.2833 0.10929-1.9945-1.6347-2.4571-4.5824-1.001-6.5316 0.8067-1.0796 1.9781-1.5734 3.3182-1.751 1.1549-0.15332 2.2974-0.099858 3.4137 0.23746 0.20249 0.06133 0.37042 0.028306 0.55481-0.029092 1.038-0.32002 2.0991-0.36798 3.1676-0.19421 0.9071 0.14703 1.68 0.54961 2.2818 1.2235 0.1432 0.16119 0.251 0.21072 0.4148 0.0228 1.6966-1.9476 5.5333-1.5403 7.0916-0.27992 1.0701 0.8657 1.5821 1.9869 1.7089 3.2812 0.0848 0.86176 0.0576 1.7259-0.256 2.5578-0.5515 1.4617-1.9336 2.2181-3.6318 1.9846-1.4883-0.20443-2.4917-1.2926-2.5955-2.811-0.0378-0.55197-0.0115-1.0969 0.1688-1.6284 0.5672-1.6732 2.5395-2.4359 4.171-1.6103 0.1325 0.0684 0.2609 0.14153 0.391 0.21229zm-15.368 2.0679c0.00988 0.18242 0.01152 0.36562 0.02963 0.54804 0.16546 1.6771 1.4998 2.5916 3.0828 2.1159 0.5614-0.16905 0.84951-0.53468 0.86844-1.1039 0.01811-0.53153-0.25518-0.92388-0.79106-1.115-0.32268-0.1148-0.66265-0.18792-1.0051-0.16119-0.35643 0.02752-0.43216-0.10851-0.42063-0.42302 0.02305-0.62981 0.00494-0.6306 0.64207-0.68799 0.8034-0.07313 1.2405-0.37821 1.3747-0.96084 0.16463-0.71866-0.27164-1.4208-1.089-1.777-0.25435-0.11086-0.47414-0.12502-0.72603 0.02516-1.3739 0.82009-1.8949 2.0632-1.9657 3.5398zm15.835-0.10064c0.1391-0.58106-0.3482-0.89715-0.861-1.1684-1.3541-0.71708-2.7831-0.01022-2.97 1.4491-0.0453 0.35462-0.0255 0.70294 0.0288 1.052 0.1301 0.84211 0.6651 1.3894 1.4463 1.4806 0.9302 0.1085 1.6727-0.27992 2.0283-1.0631 0.2379-0.52445 0.2939-1.0819 0.3276-1.7503z" /></symbol>
</svg>



