<svg width="104" height="105" viewBox="0 0 104 105" fill="none" xmlns="http://www.w3.org/2000/svg">
<g clip-path="url(#clip0)">
<path d="M37.8802 64.9405C47.7582 63.2248 54.5041 57.5083 59.0526 48.8423C57.8114 47.7471 57.315 48.7474 56.7674 49.273C55.5336 50.4484 54.1756 50.8938 52.971 49.4993C51.9343 48.302 52.4964 47.0171 53.5112 45.9366C57.5559 41.6145 60.2937 36.628 61.1771 30.7217C61.9948 29.3346 61.1333 27.7357 61.7466 26.3193C61.6955 21.9754 62.6373 17.5365 60.5711 12.258C59.7826 14.4263 59.4322 15.6164 58.9284 16.748C57.4975 19.9603 54.6137 20.1721 51.832 19.5442C49.4301 19.0039 48.627 16.9378 48.7219 14.4701C48.8387 11.4403 48.8825 8.39588 48.7146 5.37335C48.5394 2.23401 49.9995 0.584031 52.9272 0.0875767C56.0227 -0.43808 59.1913 1.35791 59.4687 4.40965C59.695 6.94302 60.7537 7.95783 62.9001 8.65871C64.9516 9.33038 66.1782 11.1264 66.1563 13.0976C66.0321 23.1362 67.4047 33.2697 65.5138 43.1988C62.8855 56.9753 54.3946 65.6706 40.8005 69.2407C35.6753 70.584 35.6388 70.4526 35.6388 75.8917C35.6388 81.4695 35.6096 87.0546 35.6461 92.6324C35.6826 97.6042 38.2014 100.619 42.2023 100.605C46.1666 100.59 48.6708 97.5458 48.7511 92.5959C48.7876 90.5371 48.7511 88.471 48.7584 86.4048C48.7803 78.7171 53.4017 72.9276 60.0528 72.2413C67.4777 71.482 73.2527 75.8552 74.9684 83.5575C75.0998 84.1416 75.1071 84.7622 75.1655 85.3608C75.8736 88.9674 74.8077 92.6689 75.7568 96.2609C76.1073 98.3343 77.3119 99.5463 79.3854 99.904C80.8601 100.481 82.3422 100.481 83.8169 99.904C87.1315 98.035 88.1463 94.9541 88.1609 91.4278C88.1901 80.8854 88.1755 70.3358 88.1682 59.7935C88.1682 58.3698 88.4384 57.1141 86.1897 56.7344C79.692 55.6393 74.231 50.3243 75.0195 40.7457C75.5305 34.5765 80.298 29.3711 86.8103 28.5315C94.206 27.5751 100.594 31.6124 102.814 38.6504C104.916 45.316 102.047 51.9232 95.5421 55.3838C95.0091 55.6685 94.498 55.9824 93.9724 56.2818C92.3735 57.0995 92.9284 58.5961 92.9211 59.8446C92.8846 70.0365 92.9065 80.2211 92.8919 90.413C92.8919 91.6176 93.089 92.8368 92.6801 94.0196C91.585 101.831 87.5331 105.27 79.7504 104.978C75.1144 104.803 70.9164 100.641 70.7047 95.9543C70.5514 92.4572 70.5952 88.9455 70.325 85.463C70.0184 81.506 67.6967 78.885 64.1558 77.2715C62.6373 76.7313 61.126 76.7313 59.6074 77.2715C56.6068 78.1257 54.1829 79.5494 53.8179 83.0465C52.9126 86.6677 53.9639 90.3911 53.2557 94.0269C52.1606 101.846 48.1013 105.285 40.304 104.985C35.6534 104.803 31.3824 100.656 31.2948 95.9324C31.1634 88.6608 31.1269 81.3819 31.2656 74.1103C31.3167 71.2557 30.8933 70.2774 27.4911 69.7736C17.4744 68.277 9.83772 62.6919 4.64683 53.9309C1.49288 48.6086 0.310143 42.8556 0.499964 36.6645C0.72629 29.4003 0.587574 22.1141 0.536468 14.8425C0.514566 11.3965 1.21544 8.5857 5.2674 7.90672C6.1873 7.75341 7.20942 7.26426 7.08531 6.00122C6.74947 2.51874 8.12932 0.350405 11.7432 0.0802759C15.3717 -0.189853 17.3138 1.86897 18.1899 5.17623C18.5695 8.30827 18.5695 11.433 18.1899 14.565C17.2115 17.8796 15.4959 20.0917 11.5315 19.7267C8.35565 19.4347 7.12911 17.7555 7.10721 14.7768C7.09991 14.0321 7.50145 12.8056 6.36982 12.7033C5.12868 12.5865 4.93886 13.7547 4.94616 14.7549C4.96807 18.6097 5.01917 22.4645 5.06298 26.3193C5.68355 27.7211 4.80745 29.3272 5.63974 30.6998C6.28222 41.8992 17.7007 53.325 28.9367 54.0039C31.9227 54.5807 34.9014 54.5588 37.8875 54.0112C38.9315 54.8435 40.9903 54.953 40.4209 56.9827C39.9025 58.8298 38.2525 58.9247 36.6025 59.0561C25.8995 59.9395 16.6275 56.968 9.14414 49.0613C8.76449 48.6597 8.39945 48.0611 7.66207 48.3896C10.2028 56.7052 20.0881 64.3857 28.944 64.9332C30.0829 65.6998 31.4627 64.9259 32.6309 65.5027C33.1492 65.5027 33.6676 65.5027 34.186 65.5027C35.3687 64.9332 36.7412 65.6998 37.8802 64.9405Z" fill="#5AC0CE"/>
<path d="M49.3716 53.9091C48.4809 55.9533 46.6703 56.698 44.5385 56.8659C43.0126 56.9827 42.2314 56.1066 42.3774 54.6757C42.6695 51.9014 44.8597 51.8721 46.9332 51.7845C48.3203 51.7334 49.2694 52.2372 49.3716 53.9091Z" fill="#62C2D0"/>
<path d="M92.6802 94.0196C92.6437 82.258 92.5999 70.4892 92.578 58.7276C92.578 57.6836 92.3079 56.4132 93.9725 56.2891C93.1182 57.5887 93.2716 59.0634 93.2716 60.5017C93.2716 70.4016 93.2862 80.3014 93.2497 90.2013C93.257 91.479 93.6877 92.8734 92.6802 94.0196Z" fill="#F5F9F9"/>
<path d="M75.7568 96.2683C74.3405 92.6982 75.2749 89.004 75.1654 85.3682C76.4577 88.9456 75.4356 92.6471 75.7568 96.2683Z" fill="#F5F9F9"/>
<path d="M53.2631 94.0196C53.3653 90.3546 52.46 86.6385 53.8253 83.0465C53.5551 86.6969 54.5554 90.4203 53.2631 94.0196Z" fill="#F5F9F9"/>
<path d="M18.2118 14.5578C18.2118 11.4257 18.2118 8.30098 18.2118 5.16895C19.1974 8.30098 19.1974 11.4257 18.2118 14.5578Z" fill="#F5F9F9"/>
<path d="M37.9094 54.0113C34.9234 55.0261 31.9447 55.0626 28.9586 54.004C31.9447 54.004 34.9234 54.0113 37.9094 54.0113Z" fill="#F5F9F9"/>
<path d="M59.6147 77.2716C61.126 76.3006 62.6446 76.2933 64.1559 77.2716C62.6446 77.2716 61.1333 77.2716 59.6147 77.2716Z" fill="#F5F9F9"/>
<path d="M61.7612 26.3193C61.8196 27.816 62.17 29.3565 61.1917 30.7217C61.345 29.247 60.6588 27.6627 61.7612 26.3193Z" fill="#F5F9F9"/>
<path d="M83.817 99.9114C82.3422 100.941 80.8601 100.941 79.3854 99.9114C80.8601 99.9114 82.3422 99.9114 83.817 99.9114Z" fill="#F5F9F9"/>
<path d="M5.6617 30.6998C4.66879 29.3419 5.03383 27.8087 5.08494 26.3193C6.18006 27.6627 5.49378 29.2397 5.6617 30.6998Z" fill="#F5F9F9"/>
<path d="M37.8802 64.9406C36.7631 65.8312 35.4636 65.583 34.1932 65.51C35.303 64.4879 36.6463 65.0501 37.8802 64.9406Z" fill="#F5F9F9"/>
<path d="M32.6455 65.5027C31.3752 65.5757 30.0829 65.8312 28.9586 64.9332C30.1998 65.0501 31.5431 64.4879 32.6455 65.5027Z" fill="#F5F9F9"/>
<path d="M89.1247 32.8609C94.2499 32.7806 99.0027 37.402 99.083 42.5344C99.1633 47.6669 94.5492 52.4124 89.4021 52.4927C84.2696 52.573 79.5241 47.9589 79.4438 42.8192C79.3635 37.694 83.9849 32.9485 89.1247 32.8609Z" fill="#F5FBFB"/>
<path d="M13.9189 9.71009C13.0793 11.4915 14.9702 14.5578 12.466 14.6527C10.7576 14.7184 11.5607 11.5426 11.6337 9.88531C11.7067 8.19153 10.3488 5.11059 12.78 5.07409C14.7147 5.05218 13.0428 8.23533 13.9189 9.71009Z" fill="#F2F9F9"/>
<path d="M55.3292 10.4037C54.8254 11.7105 56.3513 14.7184 54.1683 14.7038C52.2628 14.6892 53.4456 11.6521 53.1754 9.97292C53.0221 9.03112 53.1243 8.03821 53.1608 7.07451C53.1973 6.14731 53.0075 4.77476 54.2997 4.84777C55.519 4.91347 55.3 6.28602 55.3219 7.22783C55.3511 8.18423 55.3292 9.15523 55.3292 10.4037Z" fill="#F2F9F9"/>
<path d="M89.3145 38.3073C92.0304 38.5774 93.7388 40.1324 93.7242 42.7169C93.7096 45.2868 91.9209 46.9076 89.3437 47.185C87.117 47.4186 84.4887 44.7392 84.7661 42.5271C85.0946 39.9353 86.6935 38.4752 89.3145 38.3073Z" fill="#5FC2CF"/>
</g>
<defs>
<clipPath id="clip0">
<rect width="103" height="105" fill="white" transform="translate(0.5)"/>
</clipPath>
</defs>
</svg>
