<svg width="107" height="105" viewBox="0 0 107 105" fill="none" xmlns="http://www.w3.org/2000/svg">
<g clip-path="url(#clip0)">
<path d="M100.604 34.8901C102.842 35.6934 104.071 37.0954 104.365 39.6147C104.792 43.2732 105.646 46.8805 106.331 50.5025C106.92 53.6278 106.066 55.9573 102.776 56.9796C100.56 57.0672 100.163 58.3013 100.185 60.3168C100.288 70.3501 100.236 80.3835 100.221 90.4169C100.221 91.6145 100.42 92.834 100.008 94.017C98.9113 101.83 94.8188 105.27 86.9797 104.978C82.3057 104.802 78.0808 100.64 77.8526 95.9594C77.7127 93.1918 77.7274 90.4023 77.4845 87.642C77.1312 83.6842 74.8274 81.0699 71.2575 79.4488C69.7265 78.9085 68.2028 78.9085 66.6718 79.4488C63.6466 80.3032 61.2029 81.7271 60.8349 85.225C59.9295 88.1094 60.9747 91.1179 60.2681 94.017C59.164 101.845 55.0568 105.284 47.1883 104.97C42.4923 104.781 38.2599 100.626 38.1274 95.8644C37.9728 90.4023 37.9876 84.9402 37.9287 79.478C36.2505 78.8646 34.5649 78.8939 32.8867 79.478C32.6732 82.8736 32.9088 86.5102 28.4409 87.6274C26.7553 87.9779 25.0697 87.9779 23.3841 87.6274C20.1676 87.182 18.6881 85.3856 19.0635 82.1653C19.3284 79.8943 18.7764 78.7916 16.0309 78.5214C8.29491 77.762 0.706127 69.5323 0.6178 61.7699C0.448506 46.216 0.500031 30.6694 0.544194 15.1154C0.558915 10.7779 2.25921 9.25897 7.18346 8.61637C11.5483 7.90074 15.9941 8.97418 20.3442 8.01758C21.9635 3.0447 25.2464 0.160285 30.6711 -0.000365639C36.5743 -0.175621 40.1295 2.97168 42.3082 8.06869C46.732 8.93037 51.2293 7.90074 55.6604 8.60906C60.7686 9.85776 62.3291 11.7856 62.3291 16.9921C62.3364 30.7132 62.3438 44.4342 62.3291 58.1553C62.3144 69.5907 54.6961 77.835 43.1989 78.8939C42.5806 84.6846 42.5879 90.4753 43.1915 96.2661C43.5448 98.3399 44.7593 99.5521 46.8497 99.9099C48.3366 100.487 49.8308 100.487 51.3176 99.9099C54.9685 97.858 55.6677 94.4551 55.7266 90.6871C55.7855 87.2331 55.1451 83.6842 57.2723 80.4931C60.2313 76.046 65.6193 73.4974 70.757 74.476C76.8883 75.6443 80.657 79.3539 82.0702 85.3856C82.2321 86.0866 82.2469 86.8315 82.3352 87.5471C83.0565 90.4169 81.9672 93.4109 82.9314 96.2588C83.2847 98.3326 84.4992 99.5448 86.5896 99.9026C88.0765 100.48 89.5707 100.48 91.0575 99.9026C94.3992 98.0332 95.4223 94.9516 95.4371 91.4246C95.4665 81.1211 95.4665 70.8175 95.415 60.5139C95.4076 59.4624 95.9523 58.2575 94.1784 57.5784C88.7536 55.4972 87.8851 53.8761 88.9597 48.2022C89.4897 45.3908 90.0417 42.6013 90.476 39.768C90.7778 37.8037 91.1237 35.2698 94.0974 35.0434C95.2236 34.9558 95.4518 34.211 95.4444 33.2763C95.4371 31.94 95.3782 30.6036 95.4739 29.2746C95.5548 28.172 94.9881 26.6969 96.7988 26.3537C98.5653 26.0178 99.6179 26.7626 100.001 28.486C100.7 30.5744 99.6547 32.8308 100.604 34.8901Z" fill="#5AC0CE"/>
<path d="M100.001 94.0173C99.9638 82.4505 99.9711 70.8836 99.8534 59.3167C99.8313 57.0092 100.913 56.666 102.776 56.9873C100.987 57.7248 100.531 59.0246 100.553 60.9378C100.663 70.6937 100.619 80.4496 100.582 90.2128C100.582 91.4834 101.016 92.8782 100.001 94.0173Z" fill="#F5F9F9"/>
<path d="M43.1915 96.2738C42.0359 90.483 41.9991 84.6923 43.1989 78.9016C43.1989 84.685 43.1989 90.4757 43.1915 96.2738Z" fill="#F5F9F9"/>
<path d="M55.6604 8.61673C51.2072 8.49259 46.7099 9.41998 42.3082 8.07636C46.754 8.31003 51.2587 7.32422 55.6604 8.61673Z" fill="#F5F9F9"/>
<path d="M20.3515 8.02529C16.0235 9.50766 11.5777 8.44882 7.1908 8.62408C11.5188 7.26585 15.9646 8.3758 20.3515 8.02529Z" fill="#F5F9F9"/>
<path d="M60.2607 94.0173C60.3564 91.0818 59.4658 88.0805 60.8275 85.2253C60.5846 88.1536 61.5046 91.1548 60.2607 94.0173Z" fill="#F5F9F9"/>
<path d="M82.9387 96.2737C81.5255 93.4477 82.4456 90.4684 82.3425 87.5621C83.5938 90.3881 82.6369 93.3747 82.9387 96.2737Z" fill="#F5F9F9"/>
<path d="M100.604 34.8905C99.191 32.8677 100.104 30.6332 100.001 28.4863C101.222 30.531 100.324 32.7655 100.604 34.8905Z" fill="#F5F9F9"/>
<path d="M23.3767 87.6424C25.0623 87.6424 26.7479 87.6424 28.4334 87.6424C26.7479 88.5479 25.0623 88.5479 23.3767 87.6424Z" fill="#F5F9F9"/>
<path d="M32.8719 79.4857C34.5502 78.383 36.2357 78.3246 37.914 79.4857C36.2357 79.4857 34.5575 79.4857 32.8719 79.4857Z" fill="#F5F9F9"/>
<path d="M91.0648 99.9103C89.578 100.94 88.0838 100.94 86.5969 99.9103C88.0838 99.9103 89.5706 99.9103 91.0648 99.9103Z" fill="#F5F9F9"/>
<path d="M51.3176 99.9103C49.8308 100.94 48.3366 100.94 46.8497 99.9103C48.3439 99.9103 49.8308 99.9103 51.3176 99.9103Z" fill="#F5F9F9"/>
<path d="M66.6644 79.4565C68.1881 78.4853 69.7191 78.478 71.2427 79.4565C69.7191 79.4565 68.1954 79.4565 66.6644 79.4565Z" fill="#F5F9F9"/>
<path d="M31.709 13.1295C39.0622 13.1295 46.4155 13.1953 53.7687 13.1003C56.735 13.0638 58.1262 14.2176 57.9274 17.1969C57.8465 18.4091 57.7581 19.6505 57.9495 20.8335C58.4206 23.7763 57.2944 25.3682 54.3134 25.9159C52.6572 26.2226 50.5815 26.763 51.1041 29.0486C51.6488 31.451 53.7687 30.8742 55.3291 30.2973C57.8612 29.3626 57.9421 30.6916 57.9348 32.5391C57.898 41.4041 58.0378 50.2764 57.8685 59.1341C57.6992 67.7363 51.0011 74.2207 42.2935 74.3521C35.0654 74.4617 27.8299 74.4398 20.6018 74.3521C13.7197 74.2718 7.55884 69.7736 5.79965 63.8076C5.29177 62.077 5.3433 60.9962 7.64716 61.2518C8.97943 61.3978 10.3411 61.3102 11.6881 61.2153C12.9689 61.1277 13.7049 60.3755 13.7049 59.083C13.7049 57.7905 12.9836 57.0311 11.6955 56.9434C10.4736 56.8558 9.24441 56.8777 8.02255 56.885C6.41058 56.8923 4.83541 57.1479 4.8943 54.6067C4.94582 52.2845 6.38114 52.5255 7.86062 52.5255C9.08248 52.5255 10.3117 52.5474 11.5336 52.489C12.7922 52.4233 13.6387 51.788 13.7049 50.4809C13.7785 48.9985 12.9394 48.2172 11.4894 48.1587C10.0173 48.1003 8.54516 48.0638 7.0804 48.1368C5.49787 48.2172 4.90902 47.5673 4.92374 46.0046C4.93846 44.5514 5.29177 43.6824 6.96999 43.7627C8.43475 43.8285 9.91423 43.7847 11.379 43.7408C12.8069 43.697 13.7344 43.0179 13.7049 41.5136C13.6681 40.0021 12.6892 39.4179 11.2759 39.3814C10.7828 39.3668 10.2455 39.4982 9.81118 39.3448C8.16977 38.7534 5.32857 41.0098 4.95318 37.3951C4.62932 34.2259 4.8575 31.7577 8.86166 30.5602C15.891 28.4571 22.6922 27.7561 29.648 30.5529C31.3336 31.232 33.1516 31.6336 34.9403 32.0133C36.2284 32.2835 37.4944 32.0133 37.8477 30.5163C38.1937 29.0632 37.2368 28.2234 36.0002 27.778C26.9982 24.5942 17.9226 22.1114 8.52308 26.1642C5.52731 27.4567 4.62196 26.6023 4.8943 23.5426C5.08567 21.3738 4.99735 19.1685 4.91638 16.9852C4.80597 14.1738 6.13824 13.0711 8.91319 13.1003C16.5093 13.1733 24.1128 13.1295 31.709 13.1295Z" fill="#F6FBFB"/>
<path d="M97.7556 52.3211C93.9943 53.3435 93.0227 51.9487 93.9502 48.5604C94.5758 46.2529 94.9291 43.8504 95.2604 41.4772C95.4591 40.0605 95.967 39.3887 97.5495 39.3668C99.2645 39.3376 99.8902 40.0094 100.096 41.6159C100.383 43.8797 100.825 46.1215 101.34 48.3487C102.069 51.5471 101.797 53.7232 97.7556 52.3211Z" fill="#F4FAFA"/>
<path d="M30.9214 8.74092C30.4356 8.74092 29.9277 8.82855 29.464 8.72632C28.2495 8.45613 26.2695 9.53688 25.953 8.00339C25.6659 6.63786 27.4251 5.70316 28.75 5.03865C29.7511 4.52749 30.8184 4.29381 31.9298 4.43986C34.2263 4.74656 36.8761 5.74697 36.8025 7.94497C36.751 9.66832 33.9172 8.3539 32.3788 8.72632C31.9151 8.82855 31.4072 8.74092 30.9214 8.74092Z" fill="#F1F9F9"/>
<path d="M27.8593 81.0484C28.0286 82.5965 27.3073 83.1734 25.7468 83.1442C24.2673 83.115 23.914 82.3701 23.9214 81.0922C23.9361 79.734 24.1569 78.7701 25.8793 78.7701C27.5428 78.7774 28.0065 79.5952 27.8593 81.0484Z" fill="#F4FAFA"/>
<path d="M41.2998 61.2737C35.4408 61.3321 31.547 56.5564 32.7836 50.9117C33.8215 46.1725 36.9497 42.8208 40.2473 39.5493C41.0422 38.768 41.6679 38.9213 42.4039 39.6224C45.6867 42.7331 48.8076 45.9462 49.8823 50.5466C51.2366 56.2789 47.284 61.2153 41.2998 61.2737Z" fill="#5BC1CE"/>
<path d="M44.5753 32.7728C41.9917 32.8677 40.5269 32.3128 40.5858 30.531C40.6447 28.7565 42.2199 28.3768 43.8098 28.3549C45.2745 28.3403 46.6951 28.6105 46.673 30.3484C46.6436 32.101 45.2892 32.7436 44.5753 32.7728Z" fill="#65C3D0"/>
<path d="M45.5174 53.1317C45.4659 55.1252 43.9864 56.7536 41.2704 56.7828C39.0033 56.8048 37.2809 55.7532 37.2073 53.0952C37.1411 50.7146 39.9675 45.3985 41.3661 45.4058C42.6247 45.4204 45.4438 50.1523 45.5174 53.1317Z" fill="#F5FAFA"/>
</g>
<defs>
<clipPath id="clip0">
<rect width="106" height="105" fill="white" transform="translate(0.5)"/>
</clipPath>
</defs>
</svg>
