<svg width="108" height="90" viewBox="0 0 108 90" fill="none" xmlns="http://www.w3.org/2000/svg">
<g clip-path="url(#clip0)">
<path d="M106.837 31.4393C105.186 38.6799 100.979 44.2474 95.6956 49.3618C82.3805 62.2576 69.2717 75.3652 56.1703 88.4875C54.3134 90.3433 53.2523 90.6283 51.2554 88.5752C44.3804 81.488 37.2329 74.6565 30.2769 67.6424C28.2873 65.6331 27.0715 65.1217 26.2904 68.4753C25.9662 69.8562 25.082 71.1056 24.5146 72.4427C22.9819 76.0155 20.3882 78.1928 16.3575 78.0174C12.2311 77.8421 10.0573 74.9342 8.92255 71.5148C7.61093 67.562 6.94775 63.4047 5.8793 59.3716C5.28244 57.0993 4.91401 54.7978 1.95182 53.826C-0.000872135 53.1904 0.227556 51.203 1.42128 49.6029C2.62973 49.2376 3.83082 49.2011 5.03191 49.6322C10.9637 53.4169 10.4847 60.0803 12.3563 65.6843C12.3932 65.7939 12.3711 65.9327 12.4005 66.0423C13.2111 68.8479 13.0785 72.9687 16.9249 72.9322C20.4471 72.903 20.8155 68.7749 22.0166 66.1373C23.704 62.4402 22.6282 59.6492 19.4818 56.7997C14.7069 52.4816 9.77731 48.2074 5.98246 42.9249C-2.00514 31.8119 -1.16512 17.8567 8.08252 8.05886C17.1754 -1.57095 32.6643 -2.69614 43.8499 5.35549C46.6426 7.36475 49.1111 9.74663 51.3733 12.2819C53.1491 14.2693 54.306 13.9916 56.0303 12.2016C61.0115 7.03596 66.2727 2.35988 73.7739 0.796314C87.8996 -2.14816 101.163 5.08516 105.71 18.5873C106.174 19.9609 106.505 21.3784 106.896 22.7739C107.434 23.9575 106.704 25.3238 107.441 26.4709C107.441 26.8728 107.434 27.2819 107.434 27.6838C106.69 28.8528 107.471 30.2556 106.837 31.4393Z" fill="#5AC0CE"/>
<path d="M5.03178 49.6322C3.83069 49.6249 2.62223 49.6176 1.42114 49.6103C2.6296 48.6897 3.83806 48.6751 5.03178 49.6322Z" fill="#F5F9F9"/>
<path d="M106.837 31.4393C106.815 30.1534 106.601 28.8456 107.419 27.6912C107.338 28.9552 107.92 30.3215 106.837 31.4393Z" fill="#F5F9F9"/>
<path d="M107.434 26.4783C106.608 25.3385 106.874 24.0379 106.888 22.7812C107.89 23.8918 107.338 25.2289 107.434 26.4783Z" fill="#F5F9F9"/>
<path d="M24.6912 55.0463C19.3563 49.4423 13.6898 45.0804 9.52653 39.3887C2.88739 30.3288 4.70007 17.3088 13.1887 9.98053C21.7879 2.55725 34.7052 2.86412 43.3781 10.7769C45.9939 13.1661 48.6835 15.548 50.8793 18.2952C53.3331 21.3639 55.0058 20.8743 57.29 18.1783C59.4859 15.5772 62.0281 13.2465 64.5555 10.9377C71.0178 5.01219 78.5559 3.11253 87.0078 5.7136C95.2312 8.24161 100.257 13.9771 102.018 22.1822C103.58 29.4813 102.01 36.3639 96.6386 41.7852C83.1319 55.4043 69.4115 68.8188 55.8237 82.3575C54.5415 83.6362 53.7752 83.8919 52.3531 82.4525C45.0507 75.0658 37.6305 67.7959 30.2619 60.4749C29.5029 59.7224 28.5229 59.0648 28.7955 57.735C30.3945 49.9026 31.1387 41.8802 33.9462 34.3108C34.2778 33.4121 34.7862 32.5426 35.3683 31.7755C37.0115 29.6274 38.8758 29.1598 40.8432 31.3955C41.978 32.6888 43.3191 33.8505 44.8591 32.4184C46.5834 30.8183 45.2276 29.3278 44.0265 28.0492C40.438 24.228 35.1547 24.5129 31.9272 28.7214C29.245 32.2139 28.346 36.4004 27.3071 40.5212C26.747 42.757 26.3565 45.0292 25.9512 47.3015C25.5386 49.5592 25.207 51.8388 24.6912 55.0463Z" fill="#F6FBFB"/>
<path d="M57.747 65.8378C55.3964 66.0497 53.2743 64.6688 51.6532 62.5426C49.0741 59.1671 48.1089 55.112 47.1141 51.1081C46.8046 49.8514 47.1067 48.5947 48.6615 48.2659C50.3121 47.9152 51.1226 48.7993 51.55 50.3117C52.3385 53.1101 52.95 55.9888 54.468 58.5314C56.7228 62.3161 59.7513 62.3746 62.0872 58.6483C63.6493 56.1568 64.5262 53.3585 65.5357 50.6186C67.8347 44.4009 71.7327 41.7267 78.335 41.7048C81.0319 41.6975 83.7362 41.6975 86.4405 41.7267C88.0248 41.7413 89.0859 42.4501 88.968 44.1451C88.8648 45.6722 87.7448 46.1106 86.3742 46.1106C83.6699 46.1106 80.973 46.1252 78.2687 46.1252C74.0759 46.1252 71.3864 48.1563 69.8979 51.9922C68.8 54.8198 67.761 57.7058 66.3168 60.358C64.6441 63.434 62.2272 65.8305 57.747 65.8378Z" fill="#5BC1CE"/>
<path d="M10.3887 26.7559C10.8087 21.9556 12.0171 17.9517 15.0751 14.6858C16.033 13.6629 17.0646 12.7423 18.5384 13.8309C20.1595 15.0292 19.5479 16.2713 18.6342 17.5937C13.9403 24.3594 13.9256 28.5752 18.5531 35.1363C19.4668 36.4296 20.2184 37.679 18.6194 38.921C17.0057 40.1704 15.9372 39.016 14.8762 37.9347C12.3635 35.3701 10.3371 30.1168 10.3887 26.7559Z" fill="#5DC1CF"/>
<path d="M46.1044 35.8962C48.7424 36.0935 48.7277 38.2124 49.1182 39.849C49.4351 41.1788 48.6982 42.2893 47.2392 42.3697C44.7118 42.5012 44.4833 40.47 44.1739 38.7165C43.9012 37.1968 44.6381 36.2031 46.1044 35.8962Z" fill="#65C3D0"/>
</g>
<defs>
<clipPath id="clip0">
<rect width="107" height="90" fill="white" transform="translate(0.5)"/>
</clipPath>
</defs>
</svg>
